<svg width="48" height="48" viewBox="0 0 48 48" fill="none" xmlns="http://www.w3.org/2000/svg">
<rect width="48" height="48" rx="4" fill="#a52a2a"/>
<path d="M24.0013 8C19.656 8 19.1107 8.019 17.404 8.09667C15.7007 8.17467 14.538 8.44433 13.5207 8.84C12.4683 9.24867 11.5757 9.79533 10.6863 10.685C9.79633 11.5743 9.24967 12.467 8.83967 13.519C8.443 14.5367 8.173 15.6997 8.09633 17.4023C8.02 19.109 8 19.6547 8 24C8 28.3453 8.01933 28.889 8.09667 30.5957C8.175 32.299 8.44467 33.4617 8.84 34.479C9.249 35.5313 9.79567 36.424 10.6853 37.3133C11.5743 38.2033 12.467 38.7513 13.5187 39.16C14.5367 39.5557 15.6997 39.8253 17.4027 39.9033C19.1093 39.981 19.6543 40 23.9993 40C28.345 40 28.8887 39.981 30.5953 39.9033C32.2987 39.8253 33.4627 39.5557 34.4807 39.16C35.5327 38.7513 36.424 38.2033 37.313 37.3133C38.203 36.424 38.7497 35.5313 39.1597 34.4793C39.553 33.4617 39.823 32.2987 39.903 30.596C39.9797 28.8893 39.9997 28.3453 39.9997 24C39.9997 19.6547 39.9797 19.1093 39.903 17.4027C39.823 15.6993 39.553 14.5367 39.1597 13.5193C38.7497 12.467 38.203 11.5743 37.313 10.685C36.423 9.795 35.533 9.24833 34.4797 8.84C33.4597 8.44433 32.2963 8.17467 30.593 8.09667C28.8863 8.019 28.343 8 23.9963 8H24.0013ZM22.566 10.8833C22.992 10.8827 23.4673 10.8833 24.0013 10.8833C28.2733 10.8833 28.7797 10.8987 30.4667 10.9753C32.0267 11.0467 32.8733 11.3073 33.4373 11.5263C34.184 11.8163 34.7163 12.163 35.276 12.723C35.836 13.283 36.1827 13.8163 36.4733 14.563C36.6923 15.1263 36.9533 15.973 37.0243 17.533C37.101 19.2197 37.1177 19.7263 37.1177 23.9963C37.1177 28.2663 37.101 28.773 37.0243 30.4597C36.953 32.0197 36.6923 32.8663 36.4733 33.4297C36.1833 34.1763 35.836 34.708 35.276 35.2677C34.716 35.8277 34.1843 36.1743 33.4373 36.4643C32.874 36.6843 32.0267 36.9443 30.4667 37.0157C28.78 37.0923 28.2733 37.109 24.0013 37.109C19.729 37.109 19.2227 37.0923 17.536 37.0157C15.976 36.9437 15.1293 36.683 14.565 36.464C13.8183 36.174 13.285 35.8273 12.725 35.2673C12.165 34.7073 11.8183 34.1753 11.5277 33.4283C11.3087 32.865 11.0477 32.0183 10.9767 30.4583C10.9 28.7717 10.8847 28.265 10.8847 23.9923C10.8847 19.7197 10.9 19.2157 10.9767 17.529C11.048 15.969 11.3087 15.1223 11.5277 14.5583C11.8177 13.8117 12.165 13.2783 12.725 12.7183C13.285 12.1583 13.8183 11.8117 14.565 11.521C15.129 11.301 15.976 11.041 17.536 10.9693C19.012 10.9027 19.584 10.8827 22.566 10.8793V10.8833ZM32.542 13.54C31.482 13.54 30.622 14.399 30.622 15.4593C30.622 16.5193 31.482 17.3793 32.542 17.3793C33.602 17.3793 34.462 16.5193 34.462 15.4593C34.462 14.3993 33.602 13.5393 32.542 13.5393V13.54ZM24.0013 15.7833C19.4637 15.7833 15.7847 19.4623 15.7847 24C15.7847 28.5377 19.4637 32.215 24.0013 32.215C28.539 32.215 32.2167 28.5377 32.2167 24C32.2167 19.4623 28.5387 15.7833 24.001 15.7833H24.0013ZM24.0013 18.6667C26.9467 18.6667 29.3347 21.0543 29.3347 24C29.3347 26.9453 26.9467 29.3333 24.0013 29.3333C21.0557 29.3333 18.668 26.9453 18.668 24C18.668 21.0543 21.0557 18.6667 24.0013 18.6667Z" fill="white"/>
</svg>
