<svg width="48" height="48" viewBox="0 0 48 48" fill="none" xmlns="http://www.w3.org/2000/svg">
<rect width="48" height="48" rx="4" fill="#a52a2a"/>
<path fill-rule="evenodd" clip-rule="evenodd" d="M40 21.9842C40 14.8247 32.8227 9 23.9998 9C15.1782 9 8 14.8247 8 21.9842C8 28.4026 13.6921 33.7779 21.3811 34.7944C21.9022 34.9067 22.6113 35.1379 22.7907 35.5833C22.9521 35.9879 22.8963 36.6215 22.8423 37.0301C22.8423 37.0301 22.6546 38.1591 22.6141 38.3996C22.6121 38.4109 22.61 38.4228 22.6079 38.4352C22.5319 38.8684 22.3403 39.9616 23.9998 39.2621C25.7077 38.5425 33.2144 33.8365 36.5712 29.9727H36.5705C38.8894 27.43 40 24.8496 40 21.9842ZM20.7491 18.5244H19.6268C19.4547 18.5244 19.3149 18.664 19.3149 18.8355V25.8073C19.3149 25.979 19.4547 26.1183 19.6268 26.1183H20.7491C20.9212 26.1183 21.0607 25.979 21.0607 25.8073V18.8355C21.0607 18.664 20.9212 18.5244 20.7491 18.5244ZM27.3516 18.5244H28.4739C28.6462 18.5244 28.7855 18.664 28.7855 18.8355V25.8073C28.7855 25.979 28.6462 26.1183 28.4739 26.1183H27.3516C27.324 26.1183 27.2973 26.1143 27.2718 26.1075C27.2703 26.1072 27.2687 26.1066 27.2672 26.1066C27.2628 26.1053 27.2586 26.104 27.2542 26.1025C27.2516 26.1016 27.2489 26.1006 27.246 26.0996C27.243 26.0986 27.2399 26.0974 27.2368 26.0962C27.2313 26.094 27.2267 26.0919 27.2215 26.0897C27.2166 26.0876 27.2114 26.0851 27.2068 26.0824L27.2045 26.0813C27.2023 26.0802 27.2002 26.0792 27.1979 26.0778C27.1914 26.0741 27.185 26.0701 27.1786 26.0661C27.1776 26.0652 27.1764 26.0643 27.1755 26.0637C27.1457 26.0434 27.1184 26.018 27.0964 25.9867L23.8976 21.6665V25.8073C23.8976 25.979 23.758 26.1183 23.5856 26.1183H22.4636C22.2916 26.1183 22.1517 25.979 22.1517 25.8073V18.8355C22.1517 18.664 22.2916 18.5244 22.4636 18.5244H23.5856C23.5865 18.5244 23.5873 18.5245 23.5881 18.5245C23.5892 18.5246 23.5902 18.5247 23.5912 18.5248L23.5925 18.5249C23.5938 18.525 23.5952 18.5251 23.5967 18.5251C23.5985 18.5252 23.6002 18.5252 23.602 18.5253C23.6056 18.5254 23.6091 18.5256 23.6126 18.526C23.6181 18.5266 23.6237 18.5269 23.6292 18.5281C23.6309 18.5282 23.6327 18.5284 23.6344 18.5286C23.6371 18.5289 23.6398 18.5293 23.6424 18.5297C23.6482 18.5309 23.654 18.5324 23.6602 18.5336C23.6638 18.5349 23.6675 18.5355 23.6709 18.5367C23.6748 18.5376 23.6786 18.5388 23.6823 18.54L23.6853 18.541L23.6896 18.5425L23.6944 18.5443C23.6961 18.545 23.6978 18.5456 23.6997 18.5462C23.7013 18.5468 23.7028 18.5474 23.7044 18.548C23.7059 18.5486 23.7075 18.5493 23.709 18.5499C23.7108 18.5508 23.7127 18.5516 23.7145 18.5525C23.7155 18.5529 23.7165 18.5534 23.7175 18.5539C23.7209 18.5551 23.724 18.557 23.7273 18.5585C23.7294 18.5595 23.7315 18.5606 23.7335 18.5618C23.737 18.5638 23.7404 18.5659 23.7439 18.568C23.7473 18.5695 23.7503 18.5714 23.7534 18.5735C23.7566 18.5755 23.7597 18.5776 23.7628 18.5798L23.7634 18.5802C23.7654 18.5817 23.7675 18.5831 23.7697 18.5846C23.7724 18.5867 23.7752 18.5886 23.7776 18.591C23.7835 18.5953 23.789 18.5999 23.7942 18.6048L23.795 18.6055C23.7968 18.607 23.7984 18.6084 23.8 18.61C23.8065 18.6162 23.8126 18.6223 23.8187 18.6293L23.8209 18.6312C23.8295 18.6413 23.8378 18.6517 23.8451 18.6628L27.0399 22.9774V18.8355C27.0399 18.664 27.1795 18.5244 27.3516 18.5244ZM18.0438 24.3725H14.9943V18.8359C14.9943 18.6638 14.8548 18.5243 14.683 18.5243H13.5604C13.3883 18.5243 13.2488 18.6638 13.2488 18.8359V25.8071C13.2488 25.8908 13.2822 25.9666 13.3359 26.0224C13.3371 26.0239 13.3383 26.0255 13.3402 26.027C13.3409 26.0277 13.3416 26.0283 13.3423 26.029C13.3431 26.0297 13.344 26.0305 13.3448 26.0313C13.4009 26.0853 13.4764 26.1184 13.5601 26.1184H18.0438C18.2158 26.1184 18.3548 25.9785 18.3548 25.8065V24.6842C18.3548 24.5121 18.2158 24.3725 18.0438 24.3725ZM34.9826 19.9585C34.9826 20.1309 34.8436 20.2701 34.6716 20.2701H31.6224V21.4482H34.6716C34.8436 21.4482 34.9826 21.5881 34.9826 21.7602V22.8825C34.9826 23.0545 34.8436 23.1941 34.6716 23.1941H31.6224V24.3725H34.6716C34.8436 24.3725 34.9826 24.5124 34.9826 24.6842V25.8068C34.9826 25.9785 34.8436 26.1184 34.6716 26.1184H30.1876C30.1042 26.1184 30.0284 26.085 29.9726 26.0313C29.971 26.0301 29.9692 26.0285 29.968 26.027C29.9664 26.0258 29.9649 26.0239 29.9637 26.0224C29.91 25.9666 29.8766 25.8908 29.8766 25.8071V18.8359C29.8766 18.7525 29.9097 18.677 29.9631 18.6212C29.9646 18.6194 29.9662 18.6175 29.968 18.6157C29.9685 18.615 29.9692 18.6144 29.97 18.6137C29.9706 18.6133 29.9711 18.6128 29.9717 18.6123C30.0278 18.558 30.1035 18.5243 30.1876 18.5243H34.6716C34.8436 18.5243 34.9826 18.6641 34.9826 18.8362V19.9585Z" fill="white"/>
</svg>
