<svg width="48" height="48" viewBox="0 0 48 48" fill="none" xmlns="http://www.w3.org/2000/svg">
<rect width="48" height="48" rx="4" fill="#a52a2a"/>
<path fill-rule="evenodd" clip-rule="evenodd" d="M8 22.5205C8 13.6029 14.986 7 24.0002 7C33.0144 7 40.0004 13.6029 40.0004 22.5205C40.0004 31.4381 33.0144 38.041 24.0002 38.041C22.3809 38.041 20.8259 37.8286 19.3676 37.4261C19.0842 37.3489 18.7848 37.3714 18.5144 37.4905L15.3401 38.8909C14.5095 39.2547 13.5727 38.6656 13.5437 37.7577L13.4568 34.9118C13.4439 34.5609 13.2862 34.2358 13.0254 34.0007C9.9123 31.216 8 27.1854 8 22.5205ZM19.0939 19.6038L14.3936 27.0598C13.9397 27.7745 14.8218 28.5826 15.4947 28.0707L20.5458 24.2364C20.8871 23.9789 21.3571 23.9757 21.7016 24.2332L25.4393 27.0373C26.5596 27.8775 28.1628 27.5813 28.9097 26.3966L33.6068 18.9438C34.0607 18.2291 33.1786 17.4211 32.5057 17.9329L27.4578 21.764C27.1165 22.0215 26.6465 22.0247 26.302 21.7672L22.5644 18.9631C21.444 18.1229 19.8408 18.4191 19.0939 19.6038Z" fill="white"/>
</svg>
