<svg width="48" height="48" viewBox="0 0 48 48" fill="none" xmlns="http://www.w3.org/2000/svg">
<rect width="48" height="48" rx="4" fill="#a52a2a"/>
<path d="M35.1568 11.6703C32.2162 8.64324 28.1514 7 24 7C15.1784 7 8.08649 14.1784 8.17297 22.9135C8.17297 25.6811 8.95135 28.3622 10.2486 30.7838L8 39L16.3892 36.8378C18.7243 38.1351 21.3189 38.7405 23.9135 38.7405C32.6486 38.7405 39.7405 31.5622 39.7405 22.827C39.7405 18.5892 38.0973 14.6108 35.1568 11.6703ZM24 36.0595C21.6649 36.0595 19.3297 35.4541 17.3405 34.2432L16.8216 33.9838L11.8054 35.2811L13.1027 30.3514L12.7568 29.8324C8.95135 23.6919 10.7676 15.5622 16.9946 11.7568C23.2216 7.95135 31.2649 9.76757 35.0703 15.9946C38.8757 22.2216 37.0595 30.2649 30.8324 34.0703C28.8432 35.3676 26.4216 36.0595 24 36.0595ZM31.6108 26.4595L30.6595 26.027C30.6595 26.027 29.2757 25.4216 28.4108 24.9892C28.3243 24.9892 28.2378 24.9027 28.1514 24.9027C27.8919 24.9027 27.7189 24.9892 27.5459 25.0757C27.5459 25.0757 27.4595 25.1622 26.2486 26.5459C26.1622 26.7189 25.9892 26.8054 25.8162 26.8054H25.7297C25.6432 26.8054 25.4703 26.7189 25.3838 26.6324L24.9514 26.4595C24 26.027 23.1351 25.5081 22.4432 24.8162C22.2703 24.6432 22.0108 24.4703 21.8378 24.2973C21.2324 23.6919 20.627 23 20.1946 22.2216L20.1081 22.0486C20.0216 21.9622 20.0216 21.8757 19.9351 21.7027C19.9351 21.5297 19.9351 21.3568 20.0216 21.2703C20.0216 21.2703 20.3676 20.8378 20.627 20.5784C20.8 20.4054 20.8865 20.1459 21.0595 19.973C21.2324 19.7135 21.3189 19.3676 21.2324 19.1081C21.1459 18.6757 20.1081 16.3405 19.8486 15.8216C19.6757 15.5622 19.5027 15.4757 19.2432 15.3892H18.9838C18.8108 15.3892 18.5514 15.3892 18.2919 15.3892C18.1189 15.3892 17.9459 15.4757 17.773 15.4757L17.6865 15.5622C17.5135 15.6486 17.3405 15.8216 17.1676 15.9081C16.9946 16.0811 16.9081 16.2541 16.7351 16.427C16.1297 17.2054 15.7838 18.1568 15.7838 19.1081C15.7838 19.8 15.9568 20.4919 16.2162 21.0973L16.3027 21.3568C17.0811 23 18.1189 24.4703 19.5027 25.7676L19.8486 26.1135C20.1081 26.373 20.3676 26.5459 20.5405 26.8054C22.3568 28.3622 24.4324 29.4865 26.7676 30.0919C27.027 30.1784 27.373 30.1784 27.6324 30.2649C27.8919 30.2649 28.2378 30.2649 28.4973 30.2649C28.9297 30.2649 29.4487 30.0919 29.7946 29.9189C30.0541 29.7459 30.227 29.7459 30.4 29.573L30.573 29.4C30.7459 29.227 30.9189 29.1405 31.0919 28.9676C31.2649 28.7946 31.4378 28.6216 31.5243 28.4486C31.6973 28.1027 31.7838 27.6703 31.8703 27.2378C31.8703 27.0649 31.8703 26.8054 31.8703 26.6324C31.8703 26.6324 31.7838 26.5459 31.6108 26.4595Z" fill="white"/>
</svg>
